{
  "accessors": [
    {
      "bufferView": 2,
      "componentType": 5126,
      "count": 1886,
      "max": [
        0.9165307879447937,
        0.5844484567642212,
        2.1143510341644287
      ],
      "min": [
        -0.9279130101203918,
        -0.599968671798706,
        -2.2416772842407227
      ],
      "type": "VEC3"
    },
    {
      "bufferView": 2,
      "byteOffset": 22632,
      "componentType": 5126,
      "count": 1886,
      "max": [
        1.0,
        1.0,
        1.0
      ],
      "min": [
        -1.0,
        -1.0,
        -1.0
      ],
      "type": "VEC3"
    },
    {
      "bufferView": 3,
      "componentType": 5126,
      "count": 1886,
      "max": [
        1.0,
        0.995570719242096,
        1.0,
        1.0
      ],
      "min": [
        -1.0,
        -0.9924303293228149,
        -1.0,
        -1.0
      ],
      "type": "VEC4"
    },
    {
      "bufferView": 1,
      "componentType": 5126,
      "count": 1886,
      "max": [
        1.8189460039138794,
        0.9958490133285522
      ],
      "min": [
        0.0028409999795258045,
        0.0028409999795258045
      ],
      "type": "VEC2"
    },
    {
      "bufferView": 0,
      "componentType": 5125,
      "count": 7038,
      "type": "SCALAR"
    },
    {
      "bufferView": 2,
      "byteOffset": 45264,
      "componentType": 5126,
      "count": 2514,
      "max": [
        0.9751939177513123,
        0.6556243896484375,
        2.0775506496429443
      ],
      "min": [
        -0.9863961935043335,
        -0.3517877757549286,
        -2.139646530151367
      ],
      "type": "VEC3"
    },
    {
      "bufferView": 2,
      "byteOffset": 75432,
      "componentType": 5126,
      "count": 2514,
      "max": [
        0.9996358156204224,
        0.9999988079071045,
        1.0
      ],
      "min": [
        -0.9996358752250671,
        -1.0,
        -0.9999997615814209
      ],
      "type": "VEC3"
    },
    {
      "bufferView": 3,
      "byteOffset": 30176,
      "componentType": 5126,
      "count": 2514,
      "max": [
        1.0,
        1.0,
        1.0,
        1.0
      ],
      "min": [
        -1.0,
        -0.9997670650482178,
        -0.9999840259552002,
        -1.0
      ],
      "type": "VEC4"
    },
    {
      "bufferView": 1,
      "byteOffset": 15088,
      "componentType": 5126,
      "count": 2514,
      "max": [
        1.9972035884857178,
        0.9937617778778076
      ],
      "min": [
        0.00394099997356534,
        0.00394099997356534
      ],
      "type": "VEC2"
    },
    {
      "bufferView": 0,
      "byteOffset": 28152,
      "componentType": 5125,
      "count": 9936,
      "type": "SCALAR"
    },
    {
      "bufferView": 2,
      "byteOffset": 105600,
      "componentType": 5126,
      "count": 4593,
      "max": [
        0.8543757796287537,
        0.5903184413909912,
        1.9720802307128906
      ],
      "min": [
        -0.8792399764060974,
        -0.4014185965061188,
        -1.9908428192138672
      ],
      "type": "VEC3"
    },
    {
      "bufferView": 2,
      "byteOffset": 160716,
      "componentType": 5126,
      "count": 4593,
      "max": [
        1.0,
        1.0,
        1.0
      ],
      "min": [
        -1.0,
        -1.0,
        -1.0
      ],
      "type": "VEC3"
    },
    {
      "bufferView": 1,
      "byteOffset": 35200,
      "componentType": 5126,
      "count": 4593,
      "max": [
        0.9986969828605652,
        0.9990320205688477
      ],
      "min": [
        0.0,
        0.0
      ],
      "type": "VEC2"
    },
    {
      "bufferView": 0,
      "byteOffset": 67896,
      "componentType": 5125,
      "count": 13548,
      "type": "SCALAR"
    }
  ],
  "asset": {
    "extras": {
      "author": "FelikinRuslan (https://sketchfab.com/FelikinRuslan)",
      "license": "CC-BY-4.0 (http://creativecommons.org/licenses/by/4.0/)",
      "source": "https://sketchfab.com/3d-models/derby-car-free-30331d8e1355492f8be6ec7bb5b556bc",
      "title": "Derby car. Free"
    },
    "generator": "Sketchfab-12.67.0",
    "version": "2.0"
  },
  "bufferViews": [
    {
      "buffer": 0,
      "byteLength": 122088,
      "name": "floatBufferViews",
      "target": 34963
    },
    {
      "buffer": 0,
      "byteLength": 71944,
      "byteOffset": 122088,
      "byteStride": 8,
      "name": "floatBufferViews",
      "target": 34962
    },
    {
      "buffer": 0,
      "byteLength": 215832,
      "byteOffset": 194032,
      "byteStride": 12,
      "name": "floatBufferViews",
      "target": 34962
    },
    {
      "buffer": 0,
      "byteLength": 70400,
      "byteOffset": 409864,
      "byteStride": 16,
      "name": "floatBufferViews",
      "target": 34962
    }
  ],
  "buffers": [
    {
      "byteLength": 480264,
      "uri": "scene.bin"
    }
  ],
  "images": [
    {
      "uri": "textures/Dodge_details_baseColor.png"
    },
    {
      "uri": "textures/Dodge_details_metallicRoughness.png"
    },
    {
      "uri": "textures/Dodge_details_normal.png"
    },
    {
      "uri": "textures/Dodge_baseColor.png"
    },
    {
      "uri": "textures/Dodge_metallicRoughness.png"
    },
    {
      "uri": "textures/Dodge_normal.png"
    },
    {
      "uri": "textures/Dodge_inside_baseColor.png"
    },
    {
      "uri": "textures/Dodge_inside_metallicRoughness.png"
    }
  ],
  "materials": [
    {
      "alphaCutoff": 0.11756859756097561,
      "alphaMode": "MASK",
      "doubleSided": true,
      "name": "Dodge_details",
      "normalTexture": {
        "index": 2
      },
      "pbrMetallicRoughness": {
        "baseColorTexture": {
          "index": 0
        },
        "metallicRoughnessTexture": {
          "index": 1
        }
      }
    },
    {
      "doubleSided": true,
      "name": "Dodge",
      "normalTexture": {
        "index": 5
      },
      "pbrMetallicRoughness": {
        "baseColorTexture": {
          "index": 3
        },
        "metallicRoughnessTexture": {
          "index": 4
        }
      }
    },
    {
      "doubleSided": true,
      "name": "Dodge_inside",
      "pbrMetallicRoughness": {
        "baseColorTexture": {
          "index": 6
        },
        "metallicRoughnessTexture": {
          "index": 7
        }
      }
    }
  ],
  "meshes": [
    {
      "name": "hood_stock.001_Dodge_details_0",
      "primitives": [
        {
          "attributes": {
            "NORMAL": 1,
            "POSITION": 0,
            "TANGENT": 2,
            "TEXCOORD_0": 3
          },
          "indices": 4,
          "material": 0,
          "mode": 4
        }
      ]
    },
    {
      "name": "hood_stock.001_Dodge_0",
      "primitives": [
        {
          "attributes": {
            "NORMAL": 6,
            "POSITION": 5,
            "TANGENT": 7,
            "TEXCOORD_0": 8
          },
          "indices": 9,
          "material": 1,
          "mode": 4
        }
      ]
    },
    {
      "name": "hood_stock.001_Dodge_inside_0",
      "primitives": [
        {
          "attributes": {
            "NORMAL": 11,
            "POSITION": 10,
            "TEXCOORD_0": 12
          },
          "indices": 13,
          "material": 2,
          "mode": 4
        }
      ]
    }
  ],
  "nodes": [
    {
      "children": [
        1
      ],
      "matrix": [
        1.0,
        0.0,
        0.0,
        0.0,
        0.0,
        2.220446049250313e-16,
        -1.0,
        0.0,
        0.0,
        1.0,
        2.220446049250313e-16,
        0.0,
        0.0,
        0.0,
        0.0,
        1.0
      ],
      "name": "Sketchfab_model"
    },
    {
      "children": [
        2
      ],
      "matrix": [
        1.0,
        0.0,
        0.0,
        0.0,
        0.0,
        0.0,
        1.0,
        0.0,
        0.0,
        -1.0,
        0.0,
        0.0,
        0.0,
        0.0,
        0.0,
        1.0
      ],
      "name": "e4fe3c203bdb467e9ec4ba1333773c25.fbx"
    },
    {
      "children": [
        3
      ],
      "name": "RootNode"
    },
    {
      "children": [
        4,
        5,
        6
      ],
      "matrix": [
        1.0,
        0.0,
        0.0,
        0.0,
        0.0,
        1.0,
        0.0,
        0.0,
        0.0,
        0.0,
        1.0,
        0.0,
        0.005691160447895527,
        0.5913268327713013,
        0.0723770260810852,
        1.0
      ],
      "name": "hood_stock.001"
    },
    {
      "mesh": 0,
      "name": "hood_stock.001_Dodge_details_0"
    },
    {
      "mesh": 1,
      "name": "hood_stock.001_Dodge_0"
    },
    {
      "mesh": 2,
      "name": "hood_stock.001_Dodge_inside_0"
    }
  ],
  "samplers": [
    {
      "magFilter": 9729,
      "minFilter": 9987,
      "wrapS": 10497,
      "wrapT": 10497
    }
  ],
  "scene": 0,
  "scenes": [
    {
      "name": "Sketchfab_Scene",
      "nodes": [
        0
      ]
    }
  ],
  "textures": [
    {
      "sampler": 0,
      "source": 0
    },
    {
      "sampler": 0,
      "source": 1
    },
    {
      "sampler": 0,
      "source": 2
    },
    {
      "sampler": 0,
      "source": 3
    },
    {
      "sampler": 0,
      "source": 4
    },
    {
      "sampler": 0,
      "source": 5
    },
    {
      "sampler": 0,
      "source": 6
    },
    {
      "sampler": 0,
      "source": 7
    }
  ]
}
